<svg width="115" height="121" viewBox="0 0 115 121" fill="none" xmlns="http://www.w3.org/2000/svg">
<path d="M49.1409 60.3042C49.2111 60.1462 45.2974 59.9883 45.2623 59.9883C39.6815 59.9883 33.5215 60.778 28.0986 59.1985C18.3584 56.3203 11.2683 47.7034 9.03945 37.9632C6.81062 28.188 9.35534 17.465 16.2173 10.0589C22.5704 3.19693 30.0817 1.77544 38.9093 1.77544C39.4709 1.77544 42.507 2.02112 42.7878 1.42442C42.858 1.26648 38.9444 1.07341 38.9093 1.07341C30.345 1.07341 21.6753 0.582014 14.1114 5.35557C3.3182 12.1649 -1.50802 25.7134 1.29996 37.9632C3.89734 49.3355 12.918 58.479 24.5711 60.234C31.3102 61.2519 38.4705 60.6903 45.2623 60.6903C45.8239 60.6903 48.8601 60.9184 49.1409 60.3217V60.3042Z" fill="black"/>
<path d="M99.2284 63.3753C91.2608 59.0054 81.7488 59.9882 72.9739 59.9882C72.4123 59.9882 69.3762 59.7425 69.0954 60.3392C69.0252 60.4971 72.9388 60.6902 72.9739 60.6902C76.3259 60.6902 79.871 60.3392 83.2055 60.6902C89.8393 61.3922 96.0344 65.5691 100.088 70.7112C108.688 81.6447 108.846 97.9836 100.527 109.11C96.5083 114.48 90.1552 118.991 83.2932 119.693C80.573 119.974 77.6597 119.693 74.9219 119.693H63.3741V1.35411C63.1284 0.845165 55.8979 0.827637 54.4588 0.827637C53.5462 0.827637 50.5802 0.985583 50.5802 1.31903C50.5802 1.54718 54.3184 1.52962 55.3714 1.52962V119.71H52.7915C52.2299 119.71 49.1938 119.465 48.913 120.061C48.8428 120.219 52.7564 120.412 52.7915 120.412H72.9037C79.3796 120.412 86.3819 121.009 92.7525 119.517C118.393 113.463 121.657 75.6602 99.246 63.3929H99.2284V63.3753Z" fill="black"/>
</svg>
