<svg width="393" height="72" viewBox="0 0 393 72" fill="none" xmlns="http://www.w3.org/2000/svg">
<path d="M23.6703 52.1874C18.9318 52.1874 14.8778 51.0994 11.4731 48.9232C8.06844 46.747 5.45354 43.746 3.61081 39.9201C1.78562 36.0942 0.855469 31.7068 0.855469 26.7402C0.855469 23.0371 1.45216 19.6325 2.6631 16.5261C3.87404 13.4198 5.54129 10.7172 7.66482 8.38302C9.78835 6.06644 12.2629 4.27634 15.0709 2.9952C17.8788 1.71406 20.8798 1.08228 24.0739 1.08228C26.8994 1.08228 29.2336 1.39817 31.0588 2.01242C32.8839 2.64421 34.2704 3.18824 35.2005 3.64454C35.7972 3.92534 36.3588 4.17106 36.8678 4.38166C37.3767 4.59225 37.7277 4.69754 37.9032 4.69754C38.4121 4.69754 38.8334 4.5045 39.1493 4.10085C39.4652 3.69721 39.6757 3.03029 39.781 2.0475H41.5185L41.3781 10.1907L41.5185 18.3338H39.781C39.079 13.5076 37.4118 9.78702 34.7793 7.137C32.1468 4.50452 28.6369 3.17071 24.2845 3.17071C21.2309 3.17071 18.651 3.78494 16.5626 5.01343C14.4741 6.24192 12.8069 7.94428 11.5609 10.0854C10.3149 12.2264 9.3847 14.7361 8.80555 17.5967C8.22641 20.4398 7.94557 23.4934 7.94557 26.7402C7.94557 31.619 8.47209 35.7783 9.50753 39.2532C10.543 42.7281 12.2628 45.4132 14.6496 47.2911C17.0364 49.1689 20.2481 50.099 24.2845 50.099C27.3031 50.099 29.918 49.397 32.1468 48.0106C34.3757 46.6241 36.1658 44.7639 37.5347 42.4473C38.9035 40.1307 39.7284 37.586 40.0092 34.7955H41.6764L41.536 43.2721L41.7466 51.4152H40.0794L39.8688 50.643C39.6757 50.0464 39.4652 49.4672 39.2019 48.9407C38.9387 48.4142 38.5174 48.1334 37.9208 48.1334C37.6049 48.1334 37.2188 48.2212 36.78 48.4142C36.3413 48.6073 35.8499 48.8354 35.2883 49.1162C34.0773 49.7129 32.4978 50.3798 30.5674 51.0994C28.6193 51.8189 26.3203 52.1699 23.6878 52.1699L23.6703 52.1874Z" fill="black"/>
<path d="M57.8044 52.1876C55.5756 52.1876 53.7329 51.626 52.2763 50.4853C50.8196 49.3446 50.0825 47.7651 50.0825 45.7293C50.0825 43.6935 50.9951 41.8684 52.8028 40.2713C54.6104 38.6743 56.7164 37.2176 59.1383 35.9189C60.9459 34.901 62.7535 34.0235 64.5611 33.2689C66.3688 32.5318 67.9307 31.9 69.2294 31.391V29.1622C69.2294 26.6175 68.7556 24.7046 67.8079 23.4585C66.8602 22.2125 65.0701 21.5807 62.4201 21.5807C61.174 21.5807 59.9455 21.7386 58.7346 22.0721C57.5236 22.388 56.927 23.0022 56.927 23.8797C56.927 24.0728 56.962 24.2658 57.0322 24.5115C57.1024 24.7397 57.1551 24.9678 57.2078 25.2135C57.4359 25.8102 57.5588 26.442 57.5588 27.0914C57.5588 27.9689 57.2429 28.6533 56.6286 29.1447C55.9968 29.6361 55.2422 29.8642 54.3647 29.8642C53.5223 29.8642 52.8378 29.5483 52.2763 28.9341C51.7147 28.3023 51.4514 27.5477 51.4514 26.6702C51.4514 25.0029 52.0832 23.6691 53.3643 22.6688C54.6455 21.6684 56.2075 20.9489 58.0677 20.5102C59.9105 20.0714 61.7005 19.8433 63.4204 19.8433C67.1234 19.8433 69.8436 20.7032 71.5635 22.4231C73.2834 24.143 74.1434 26.951 74.1434 30.8295V43.3425C74.1434 45.3783 74.2838 46.9578 74.5997 48.0634C74.898 49.169 75.5825 49.7307 76.653 49.7307C77.355 49.7307 77.9517 49.485 78.4607 48.9585C78.9696 48.4495 79.3206 47.888 79.4961 47.2913L80.7421 47.7827C80.3736 49.134 79.7067 50.1869 78.759 50.9767C77.8113 51.7664 76.4951 52.1525 74.8278 52.1525C72.792 52.1525 71.3881 51.5558 70.6159 50.38C69.8437 49.2042 69.4225 47.6423 69.3347 45.6942C68.036 47.7826 66.3863 49.3797 64.4032 50.4853C62.4025 51.5909 60.2263 52.1525 57.8571 52.1525L57.8044 52.1876ZM55.5054 45.3783C55.5054 46.677 55.8915 47.7124 56.6461 48.4671C57.4183 49.2393 58.5416 49.6078 60.0157 49.6078C61.3671 49.6078 62.6482 49.2919 63.8767 48.6426C65.1052 47.9932 66.1758 47.1684 67.1059 46.168C68.036 45.1677 68.738 44.0972 69.1943 42.9389V32.7951C67.6675 33.4444 66.1055 34.1991 64.5085 35.059C62.9115 35.919 61.4197 36.8842 60.0508 37.9372C58.6819 39.0077 57.5763 40.1484 56.7515 41.3769C55.9091 42.6054 55.5054 43.9392 55.5054 45.3783Z" fill="black"/>
<path d="M82.6379 51.626V50.029L83.7435 49.8886C85.0949 49.6956 86.1128 49.4849 86.8323 49.2217C87.5518 48.976 88.0433 48.3793 88.3241 47.4843C88.6049 46.5892 88.7452 45.08 88.7452 42.9915V28.5305C88.7452 26.7228 88.4995 25.4066 88.0257 24.5642C87.5343 23.7393 86.8323 23.2128 85.9022 23.0022C84.972 22.7916 83.884 22.6863 82.6379 22.6863V21.0893C84.5333 21.0893 86.3584 21.0191 88.131 20.8787C89.886 20.7383 91.7287 20.5277 93.6241 20.2469L92.8519 28.2497H93.1327C94.1506 25.1433 95.3967 22.9671 96.8884 21.7211C98.3626 20.4751 99.9771 19.8433 101.679 19.8433C103.627 19.8433 104.926 20.3171 105.576 21.2648C106.225 22.2125 106.558 23.1251 106.558 24.0201C106.558 25.038 106.26 25.8804 105.646 26.5298C105.049 27.1791 104.224 27.5125 103.206 27.5125C102.188 27.5125 101.486 27.2844 100.977 26.8106C100.469 26.3543 100.205 25.8102 100.205 25.2135C100.205 24.7572 100.258 24.3009 100.381 23.8973C100.504 23.4761 100.556 23.1602 100.556 22.9145C100.556 22.4582 100.24 22.2125 99.5735 22.2125C98.9066 22.2125 98.2397 22.5108 97.5202 23.1075C96.8006 23.7042 96.1864 24.5466 95.6774 25.6172C95.2562 26.4947 94.8701 27.4775 94.5016 28.5305C94.133 29.601 93.8347 30.7593 93.589 32.0053V42.9915C93.589 45.08 93.7294 46.5717 94.0102 47.4843C94.291 48.3969 94.7824 48.976 95.5019 49.2217C96.2215 49.4849 97.2569 49.6956 98.5907 49.8886L99.6964 50.029V51.626L91.1496 51.4154L82.6028 51.626H82.6379Z" fill="black"/>
<path d="M108.979 51.6259V50.0289L110.085 49.8885C111.436 49.6954 112.454 49.4848 113.174 49.2216C113.893 48.9759 114.385 48.3792 114.666 47.4842C114.946 46.5891 115.087 45.0798 115.087 42.9914V9.04999C115.087 6.64566 114.595 5.10125 113.595 4.41681C112.595 3.74991 111.226 3.41651 109.453 3.41651H108.962V1.81946C110.857 1.81946 112.7 1.7668 114.455 1.64395C116.21 1.5211 118.053 1.3105 119.948 0.977051V42.9738C119.948 45.0623 120.089 46.554 120.369 47.4666C120.65 48.3792 121.141 48.9584 121.861 49.2041C122.581 49.4673 123.616 49.6779 124.95 49.8709L126.055 50.0113V51.6084L117.509 51.3978L108.962 51.6084L108.979 51.6259Z" fill="black"/>
<path d="M138.342 52.1876C136.113 52.1876 134.27 51.626 132.814 50.4853C131.357 49.3446 130.62 47.7651 130.62 45.7293C130.62 43.6935 131.532 41.8684 133.34 40.2713C135.148 38.6743 137.254 37.2176 139.676 35.9189C141.483 34.901 143.291 34.0235 145.099 33.2689C146.906 32.5318 148.468 31.9 149.767 31.391V29.1622C149.767 26.6175 149.293 24.7046 148.345 23.4585C147.397 22.2125 145.607 21.5807 142.957 21.5807C141.711 21.5807 140.483 21.7386 139.272 22.0721C138.061 22.388 137.464 23.0022 137.464 23.8797C137.464 24.0728 137.499 24.2658 137.57 24.5115C137.64 24.7397 137.692 24.9678 137.745 25.2135C137.973 25.8102 138.096 26.442 138.096 27.0914C138.096 27.9689 137.78 28.6533 137.166 29.1447C136.534 29.6361 135.78 29.8642 134.902 29.8642C134.06 29.8642 133.375 29.5483 132.814 28.9341C132.252 28.3023 131.989 27.5477 131.989 26.6702C131.989 25.0029 132.621 23.6691 133.902 22.6688C135.183 21.6684 136.745 20.9489 138.605 20.5102C140.448 20.0714 142.238 19.8433 143.958 19.8433C147.661 19.8433 150.381 20.7032 152.101 22.4231C153.821 24.143 154.681 26.951 154.681 30.8295V43.3425C154.681 45.3783 154.821 46.9578 155.137 48.0634C155.435 49.169 156.12 49.7307 157.19 49.7307C157.892 49.7307 158.489 49.485 158.998 48.9585C159.507 48.4495 159.858 47.888 160.033 47.2913L161.279 47.7827C160.911 49.134 160.244 50.1869 159.296 50.9767C158.349 51.7664 157.032 52.1525 155.365 52.1525C153.329 52.1525 151.925 51.5558 151.153 50.38C150.381 49.2042 149.96 47.6423 149.872 45.6942C148.573 47.7826 146.924 49.3797 144.941 50.4853C142.94 51.5909 140.764 52.1525 138.394 52.1525L138.342 52.1876ZM136.043 45.3783C136.043 46.677 136.429 47.7124 137.184 48.4671C137.956 49.2393 139.079 49.6078 140.553 49.6078C141.904 49.6078 143.186 49.2919 144.414 48.6426C145.643 47.9932 146.713 47.1684 147.643 46.168C148.573 45.1677 149.275 44.0972 149.732 42.9389V32.7951C148.205 33.4444 146.643 34.1991 145.046 35.059C143.449 35.919 141.957 36.8842 140.588 37.9372C139.219 39.0077 138.114 40.1484 137.289 41.3769C136.446 42.6054 136.043 43.9392 136.043 45.3783Z" fill="black"/>
<path d="M182.339 51.6259V49.8884L183.725 49.7481C185.34 49.555 186.586 49.3269 187.446 49.0285C188.306 48.7302 188.885 48.0808 189.218 47.0805C189.534 46.0801 189.71 44.448 189.71 42.1841V11.3139C189.71 8.99732 189.552 7.34758 189.218 6.38234C188.885 5.39955 188.306 4.76776 187.446 4.46941C186.586 4.17107 185.34 3.92536 183.725 3.74986L182.339 3.60949V1.87207L192.623 2.08266H201.117C202.363 2.08266 203.837 2.13529 205.505 2.22304C207.172 2.31078 208.857 2.53894 210.541 2.88994C212.226 3.24094 213.806 3.82006 215.262 4.62736C216.719 5.43465 217.895 6.55788 218.807 7.96187C219.702 9.38341 220.159 11.191 220.159 13.4199C220.159 15.6487 219.667 17.3861 218.667 18.913C217.667 20.4398 216.421 21.7034 214.911 22.7037C213.402 23.7041 211.84 24.4763 210.208 25.0378C212.437 25.2309 214.525 25.7398 216.473 26.5647C218.421 27.4071 220.001 28.6882 221.229 30.4257C222.458 32.1631 223.072 34.4972 223.072 37.4105C223.072 40.0957 222.545 42.3596 221.51 44.1847C220.457 46.0099 219.071 47.449 217.298 48.502C215.525 49.5374 213.595 50.2921 211.454 50.7659C209.313 51.2398 207.172 51.4679 204.996 51.4679H192.623L182.339 51.6786V51.6259ZM203.205 3.99559H195.343V24.5114H204.592C207.47 24.5114 209.699 23.5812 211.296 21.7385C212.893 19.8782 213.7 17.1053 213.7 13.3848C213.7 10.7523 213.279 8.7516 212.454 7.40026C211.612 6.04892 210.419 5.15385 208.874 4.68C207.312 4.22371 205.434 3.99559 203.205 3.99559ZM201.117 49.4673H205.013C207.33 49.4673 209.365 49.1513 211.103 48.502C212.84 47.8526 214.192 46.6593 215.139 44.9219C216.087 43.1844 216.561 40.6923 216.561 37.4456C216.561 34.1989 216.034 31.9349 214.964 30.3554C213.893 28.776 212.279 27.7405 210.103 27.2316C207.926 26.7226 205.171 26.4594 201.837 26.4594H195.361V42.4473C195.361 45.2378 195.835 47.098 196.782 48.0457C197.73 48.9934 199.187 49.4673 201.135 49.4673H201.117Z" fill="black"/>
<path d="M245.623 52.1876C242.57 52.1876 239.902 51.5207 237.621 50.2045C235.339 48.8883 233.584 47.0456 232.303 44.7114C231.022 42.3597 230.39 39.6921 230.39 36.6736C230.39 33.4268 231.092 30.5487 232.479 28.0215C233.865 25.4943 235.743 23.4936 238.077 22.037C240.411 20.5804 243.009 19.8433 245.834 19.8433C249.397 19.8433 252.205 20.984 254.205 23.2479C256.224 25.5119 257.224 28.5129 257.224 32.2159C257.224 32.7775 257.206 33.2338 257.154 33.6023C257.101 33.9709 257.066 34.2341 257.013 34.3745H236.006C235.953 35.0239 235.936 35.6733 235.936 36.3226C235.936 38.7796 236.322 41.0611 237.112 43.167C237.902 45.273 239.095 46.9578 240.692 48.2038C242.289 49.4499 244.255 50.0817 246.571 50.0817C248.747 50.0817 250.678 49.4674 252.38 48.2389C254.065 47.0104 255.381 45.1853 256.311 42.7809L257.979 43.4127C256.03 49.2568 251.906 52.1701 245.606 52.1701L245.623 52.1876ZM245.834 21.5982C242.956 21.5982 240.727 22.6161 239.13 24.6519C237.533 26.6877 236.55 29.4079 236.182 32.7951H245.009C247.098 32.7951 248.677 32.5493 249.765 32.0579C250.853 31.5665 251.59 30.9699 251.994 30.2503C252.398 29.5308 252.591 28.8288 252.591 28.1268C252.591 26.091 251.889 24.494 250.502 23.3357C249.116 22.1774 247.554 21.5982 245.852 21.5982H245.834Z" fill="black"/>
<path d="M271.632 52.1876C269.403 52.1876 267.56 51.626 266.103 50.4853C264.647 49.3446 263.91 47.7651 263.91 45.7293C263.91 43.6935 264.822 41.8684 266.63 40.2713C268.438 38.6743 270.544 37.2176 272.965 35.9189C274.773 34.901 276.581 34.0235 278.388 33.2689C280.196 32.5318 281.758 31.9 283.057 31.391V29.1622C283.057 26.6175 282.583 24.7046 281.635 23.4585C280.687 22.2125 278.897 21.5807 276.247 21.5807C275.001 21.5807 273.773 21.7386 272.562 22.0721C271.351 22.388 270.754 23.0022 270.754 23.8797C270.754 24.0728 270.789 24.2658 270.859 24.5115C270.93 24.7397 270.982 24.9678 271.035 25.2135C271.263 25.8102 271.386 26.442 271.386 27.0914C271.386 27.9689 271.07 28.6533 270.456 29.1447C269.824 29.6361 269.069 29.8642 268.192 29.8642C267.349 29.8642 266.665 29.5483 266.103 28.9341C265.542 28.3023 265.279 27.5477 265.279 26.6702C265.279 25.0029 265.91 23.6691 267.191 22.6688C268.473 21.6684 270.035 20.9489 271.895 20.5102C273.738 20.0714 275.528 19.8433 277.248 19.8433C280.951 19.8433 283.671 20.7032 285.391 22.4231C287.111 24.143 287.971 26.951 287.971 30.8295V43.3425C287.971 45.3783 288.111 46.9578 288.427 48.0634C288.725 49.169 289.41 49.7307 290.48 49.7307C291.182 49.7307 291.779 49.485 292.288 48.9585C292.797 48.4495 293.148 47.888 293.323 47.2913L294.569 47.7827C294.201 49.134 293.534 50.1869 292.586 50.9767C291.638 51.7664 290.322 52.1525 288.655 52.1525C286.619 52.1525 285.215 51.5558 284.443 50.38C283.671 49.2042 283.25 47.6423 283.162 45.6942C281.863 47.7826 280.213 49.3797 278.23 50.4853C276.23 51.5909 274.054 52.1525 271.684 52.1525L271.632 52.1876ZM269.333 45.3783C269.333 46.677 269.719 47.7124 270.473 48.4671C271.246 49.2393 272.369 49.6078 273.843 49.6078C275.194 49.6078 276.475 49.2919 277.704 48.6426C278.932 47.9932 280.003 47.1684 280.933 46.168C281.863 45.1677 282.565 44.0972 283.021 42.9389V32.7951C281.495 33.4444 279.933 34.1991 278.336 35.059C276.739 35.919 275.247 36.8842 273.878 37.9372C272.509 39.0077 271.403 40.1484 270.579 41.3769C269.736 42.6054 269.333 43.9392 269.333 45.3783Z" fill="black"/>
<path d="M309.663 52.1875C306.645 52.1875 304.276 51.4329 302.538 49.9236C300.801 48.4143 299.941 46.1854 299.941 43.2195V29.7237C299.941 27.6352 299.8 26.1435 299.52 25.2484C299.239 24.3358 298.747 23.7567 298.028 23.4759C297.308 23.1951 296.273 22.9845 294.939 22.8441L293.833 22.7037V21.1067L302.38 21.3173L304.82 21.2471V42.9387C304.82 45.2026 305.399 46.9401 306.557 48.151C307.715 49.362 309.295 49.9587 311.278 49.9587C312.998 49.9587 314.507 49.5726 315.823 48.8179C317.14 48.0457 318.28 47.0629 319.228 45.8695C320.176 44.6586 320.93 43.4301 321.492 42.1841V29.7412C321.492 27.6528 321.352 26.161 321.071 25.266C320.79 24.3534 320.299 23.7742 319.579 23.4934C318.86 23.2126 317.824 23.0021 316.49 22.8617L315.385 22.7213V21.1243L323.931 21.3348L326.371 21.2646V43.7284C326.371 45.501 326.599 46.7997 327.038 47.6596C327.477 48.5196 328.126 49.0812 328.986 49.362C329.846 49.6428 330.899 49.7831 332.145 49.7831V51.3802C330.249 51.3802 328.512 51.3978 326.932 51.4504C325.353 51.5031 323.545 51.7136 321.51 52.0822V45.6941C321.053 46.4311 320.562 47.0805 320.053 47.6421C318.842 48.9934 317.385 50.0815 315.666 50.9414C313.946 51.8014 311.962 52.2226 309.681 52.2226L309.663 52.1875Z" fill="black"/>
<path d="M347.009 52.1875C344.745 52.1875 342.903 51.5031 341.481 50.1342C340.059 48.7654 339.357 46.5365 339.357 43.4302V22.8442H334.215V21.1068L336.093 20.9664C337.989 20.826 339.445 20.0538 340.446 18.6322C341.446 17.2282 342.095 15.2451 342.429 12.6829H344.236V21.0892H353.134V22.8267H344.236V43.6934C344.236 47.7825 345.675 49.8183 348.554 49.8183C349.765 49.8183 350.73 49.4147 351.467 48.6074C352.204 47.8001 352.888 46.7822 353.485 45.5888L355.012 46.361C354.731 47.0454 354.398 47.6948 353.994 48.274C353.608 48.8531 353.222 49.3445 352.853 49.7657C352.064 50.6432 351.168 51.275 350.168 51.6435C349.168 52.0121 348.115 52.2051 347.009 52.2051V52.1875Z" fill="black"/>
<path d="M358.346 71.8785C356.766 71.8785 355.59 71.4924 354.801 70.7378C354.011 69.9656 353.625 69.1231 353.625 68.193C353.625 67.2629 353.958 66.4907 354.643 65.8589C355.309 65.2271 356.152 64.9288 357.187 64.9288C357.837 64.9288 358.346 65.034 358.714 65.2446C359.083 65.4552 359.434 65.6658 359.75 65.9115C360.066 66.1572 360.452 66.3854 360.855 66.6487C361.276 66.8944 361.75 67.0348 362.312 67.0348C363.154 67.0348 364.014 66.7013 364.927 66.0519C365.822 65.4026 366.77 64.0513 367.735 62.0155L372.315 52.1349L360.768 26.828C360.311 25.7575 359.802 24.88 359.241 24.1956C358.679 23.4936 357.819 23.0899 356.661 22.9495L355.064 22.7389V21.1418L362.294 21.3524L369.314 21.1418V22.7389L368.332 22.8793C366.384 23.1601 365.418 23.8796 365.418 25.0379C365.418 25.5995 365.681 26.4244 366.19 27.5476L374.878 46.6067L383.565 27.8986C384.074 26.7403 384.337 25.8452 384.337 25.1783C384.337 23.9323 383.196 23.1601 380.932 22.8793L379.827 22.7389V21.1418L386.496 21.3524L392.059 21.1418V22.7389L391.023 22.8793C389.304 23.1075 388.075 23.7392 387.303 24.7571C386.531 25.775 385.829 27.0211 385.179 28.5128L369.472 62.7877C368.735 64.3672 367.858 65.8414 366.857 67.2453C365.857 68.6318 364.681 69.7549 363.312 70.6149C361.943 71.4748 360.294 71.896 358.346 71.896V71.8785Z" fill="black"/>
</svg>
