<svg width="72" height="73" viewBox="0 0 72 73" fill="none" xmlns="http://www.w3.org/2000/svg">
<g opacity="0.8">
<rect width="71.1924" height="71.1924" transform="translate(0.268555 0.976318)" fill="#B99692"/>
<path d="M29.3643 53.3817C31.4934 55.1446 34.0558 56.2677 36.9929 56.4604C39.3071 56.6122 41.7232 56.6119 44.0327 56.4604C44.8279 56.4082 45.6948 56.221 46.4414 55.9175C47.2719 55.58 47.6874 55.4111 47.8985 55.4367C48.1096 55.4623 48.4158 55.6852 49.0284 56.1309C50.1083 56.9168 51.4689 57.4813 53.4866 57.4328C54.5068 57.4083 55.0169 57.3961 55.2453 57.0118C55.4737 56.6276 55.1893 56.0957 54.6204 55.0318C53.8314 53.5564 53.3316 51.8673 54.089 50.514C55.3936 48.5808 56.5017 46.2915 56.6636 43.8189C56.7506 42.4903 56.7506 41.1145 56.6636 39.7859C56.5557 38.1385 56.1558 36.5723 55.515 35.1387" stroke="#FBFAFA" stroke-width="1.77981" stroke-linecap="round" stroke-linejoin="round"/>
<path d="M37.1579 48.2873C44.365 47.8126 50.1059 42.0444 50.5782 34.8029C50.6707 33.3858 50.6707 31.9183 50.5782 30.5012C50.1059 23.2597 44.365 17.4915 37.1579 17.0168C34.6991 16.8549 32.132 16.8552 29.6782 17.0168C22.471 17.4915 16.7302 23.2597 16.2578 30.5012C16.1654 31.9183 16.1654 33.3858 16.2578 34.8029C16.4299 37.4404 17.6072 39.8824 18.9933 41.9444C19.7981 43.3879 19.267 45.1897 18.4287 46.7635C17.8243 47.8982 17.5221 48.4656 17.7647 48.8754C18.0074 49.2853 18.5494 49.2984 19.6334 49.3245C21.7772 49.3762 23.2228 48.7741 24.3702 47.9358C25.021 47.4603 25.3464 47.2226 25.5707 47.1953C25.795 47.168 26.2363 47.3481 27.1189 47.7082C27.9122 48.0319 28.8332 48.2316 29.6782 48.2873C32.132 48.4489 34.6991 48.4492 37.1579 48.2873Z" stroke="#FBFAFA" stroke-width="1.77981" stroke-linejoin="round"/>
<path d="M33.9215 32.4788H33.9394M41.8854 32.4788H41.9033M25.9575 32.4788H25.9754" stroke="#FBFAFA" stroke-width="2.37308" stroke-linecap="round" stroke-linejoin="round"/>
</g>
</svg>
