<svg width="47" height="48" viewBox="0 0 47 48" fill="none" xmlns="http://www.w3.org/2000/svg">
<path d="M20.4246 24.0146L20.4286 24.0155C20.4348 24.0023 20.4366 23.9869 20.4324 23.9717C20.4286 23.9578 20.4211 23.9482 20.4155 23.9426C20.4052 23.9321 20.3931 23.9264 20.3862 23.9234C20.3709 23.9168 20.3509 23.9117 20.3304 23.9074C20.288 23.8984 20.2274 23.8898 20.1562 23.8817C20.0132 23.8652 19.8202 23.8497 19.6267 23.8362C19.2408 23.8093 18.8465 23.7905 18.8374 23.7905C18.2889 23.7905 17.7265 23.8099 17.1593 23.8294L17.1403 23.8301C16.5663 23.8498 15.9873 23.8696 15.4106 23.8696C14.2569 23.8696 13.1159 23.7905 12.0499 23.4766C8.20794 22.3415 5.41447 18.943 4.53556 15.0996C3.65668 11.2386 4.66282 7.01124 7.36772 4.08785C9.86825 1.38657 12.8306 0.82553 16.3204 0.82553C16.3558 0.82553 16.4163 0.828022 16.4947 0.831254C16.5372 0.833006 16.585 0.834976 16.6369 0.836883C16.783 0.84225 16.9587 0.846961 17.1313 0.844191C17.3033 0.841429 17.4748 0.831214 17.6117 0.806018C17.68 0.793444 17.7424 0.776674 17.7927 0.753796C17.8418 0.731512 17.8881 0.699523 17.9113 0.651375L17.9116 0.650725C17.9178 0.637577 17.9195 0.622149 17.9154 0.606929C17.9116 0.593067 17.904 0.583481 17.8985 0.577822C17.8882 0.567358 17.876 0.561618 17.8692 0.558685C17.8538 0.552086 17.8339 0.546952 17.8134 0.542627C17.771 0.533681 17.7104 0.525109 17.6392 0.516936C17.4962 0.500511 17.3032 0.484926 17.1097 0.471461C16.7238 0.4446 16.3295 0.425743 16.3204 0.425743C16.0316 0.425743 15.7424 0.424325 15.4529 0.422906C12.3457 0.407671 9.21872 0.39234 6.45796 2.13044L6.45793 2.13046C2.15602 4.84235 0.233018 10.2412 1.34938 15.1215C2.38218 19.6544 5.9756 23.2983 10.623 24.0007L10.6319 23.9421L10.623 24.0007C12.6044 24.3 14.6741 24.2557 16.7054 24.2121C17.4228 24.1968 18.1353 24.1815 18.8374 24.1815C18.8728 24.1815 18.9333 24.184 19.0118 24.1872C19.0543 24.189 19.102 24.1909 19.1539 24.1928C19.3 24.1982 19.4757 24.2029 19.6483 24.2001C19.8203 24.1974 19.9918 24.1872 20.1287 24.162C20.197 24.1494 20.2594 24.1326 20.3097 24.1097C20.3563 24.0886 20.4004 24.0587 20.4246 24.0146Z" fill="#191919" stroke="#191919" stroke-width="0.118654"/>
<path d="M22.796 0.728929V47.4671H21.8318C21.7965 47.4671 21.736 47.4646 21.6577 47.4614C21.6151 47.4596 21.5673 47.4577 21.5153 47.4557C21.3693 47.4504 21.1936 47.4457 21.021 47.4484C20.8489 47.4512 20.6774 47.4614 20.5406 47.4866C20.4723 47.4992 20.4099 47.516 20.3595 47.5388C20.3105 47.5611 20.2641 47.5931 20.2409 47.6413H20.2409L20.2406 47.6419C20.2345 47.6551 20.2327 47.6705 20.2369 47.6857C20.2406 47.6996 20.2482 47.7092 20.2538 47.7148C20.2641 47.7253 20.2762 47.731 20.283 47.7339C20.2984 47.7405 20.3183 47.7457 20.3389 47.75C20.3813 47.759 20.4418 47.7675 20.513 47.7757C20.6561 47.7921 20.8491 47.8077 21.0425 47.8212C21.4284 47.848 21.8228 47.8669 21.8318 47.8669H29.8046C30.3678 47.8669 30.942 47.8784 31.5219 47.89C33.5802 47.9312 35.7114 47.9738 37.6855 47.5095L37.6855 47.5095C42.8001 46.301 45.6786 41.9278 46.1638 37.2537C46.6489 32.5802 44.7431 27.5916 40.2745 25.1463L40.2745 25.1463L40.2726 25.1453L40.2648 25.1414C38.6732 24.2707 36.9311 23.9337 35.1545 23.8137C33.9231 23.7305 32.6711 23.7516 31.4404 23.7723C30.8971 23.7814 30.3579 23.7905 29.8265 23.7905C29.7911 23.7905 29.7306 23.788 29.6522 23.7848C29.6097 23.783 29.5619 23.781 29.51 23.7791C29.364 23.7738 29.1883 23.7691 29.0157 23.7718C28.8436 23.7746 28.6721 23.7848 28.5353 23.81C28.467 23.8226 28.4046 23.8393 28.3542 23.8622C28.3052 23.8845 28.2588 23.9165 28.2356 23.9646L28.2353 23.9653C28.2292 23.9784 28.2274 23.9939 28.2316 24.0091C28.2354 24.0229 28.2429 24.0325 28.2485 24.0382C28.2588 24.0487 28.2709 24.0544 28.2777 24.0573C28.2931 24.0639 28.313 24.0691 28.3336 24.0734C28.376 24.0823 28.4365 24.0909 28.5077 24.0991C28.6508 24.1155 28.8438 24.1311 29.0372 24.1446C29.4231 24.1714 29.8175 24.1903 29.8265 24.1903C30.2688 24.1903 30.7196 24.1748 31.1717 24.1592C31.4008 24.1513 31.6303 24.1434 31.8591 24.1375C32.5409 24.12 33.2198 24.1201 33.8791 24.1899M33.8791 24.1899C33.8791 24.1899 33.8791 24.1899 33.8791 24.1899L33.8854 24.1309L33.8791 24.1899Z" fill="#191919" stroke="#191919" stroke-width="0.118654"/>
</svg>
