<svg width="126" height="120" viewBox="0 0 126 120" fill="none" xmlns="http://www.w3.org/2000/svg">
<path d="M48.2632 42.7541C46.2092 42.7541 44.1736 42.6135 42.27 42.053C35.4143 40.0274 30.433 33.9648 28.866 27.112C27.299 20.228 29.0925 12.6898 33.9169 7.47574C38.3799 2.65441 43.668 1.65536 49.8815 1.65536C49.9456 1.65536 50.0552 1.65988 50.1959 1.66567C50.2712 1.66878 50.3555 1.67225 50.4465 1.67559C50.706 1.68513 51.0173 1.69346 51.3229 1.68856C51.6279 1.68366 51.9293 1.66555 52.1682 1.62157C52.2875 1.59961 52.3935 1.5708 52.4773 1.53274C52.56 1.49519 52.6283 1.44536 52.6612 1.37703L52.6614 1.37648C52.667 1.36444 52.6686 1.35047 52.6649 1.33668C52.6614 1.32403 52.6544 1.31498 52.6488 1.30924C52.6382 1.29848 52.6247 1.2917 52.6144 1.28728C52.5924 1.27781 52.5614 1.26957 52.5256 1.26202C52.4528 1.24667 52.3472 1.23166 52.2209 1.21716C51.9678 1.18809 51.6255 1.16044 51.2816 1.1365C50.5946 1.08868 49.8953 1.05532 49.8815 1.05532C49.3682 1.05532 48.8542 1.05282 48.34 1.05032C42.8106 1.02342 37.2651 0.996441 32.369 4.07888L32.369 4.0789C24.7393 8.88862 21.3262 18.4665 23.3071 27.1264C25.1395 35.1687 31.5144 41.6313 39.756 42.877C43.2751 43.4086 46.9493 43.3298 50.561 43.2524C51.8378 43.2251 53.1069 43.1979 54.3584 43.1979C54.4225 43.1979 54.5322 43.2024 54.6729 43.2082C54.7482 43.2113 54.8325 43.2148 54.9234 43.2181C55.1829 43.2276 55.4943 43.236 55.7998 43.2311C56.1049 43.2262 56.4063 43.2081 56.6452 43.1641C56.7645 43.1421 56.8705 43.1133 56.9542 43.0753C57.0314 43.0402 57.096 42.9945 57.131 42.933L57.1384 42.9346C57.1432 42.9242 57.1451 42.9124 57.143 42.9005V42.8979L57.1425 42.8977C57.1423 42.8968 57.1421 42.8958 57.1418 42.8948C57.1384 42.8822 57.1314 42.8731 57.1257 42.8674C57.1151 42.8566 57.1016 42.8498 57.0913 42.8454C57.0693 42.8359 57.0383 42.8277 57.0025 42.8202C56.9297 42.8048 56.8241 42.7898 56.6978 42.7753C56.4447 42.7462 56.1025 42.7186 55.7585 42.6946C55.0715 42.6468 54.3723 42.6135 54.3584 42.6135C53.3837 42.6135 52.3843 42.6479 51.3752 42.6826L51.3417 42.6838C50.3209 42.719 49.2901 42.7541 48.2632 42.7541Z" fill="#191919" stroke="#191919" stroke-width="0.1"/>
<path d="M67.0187 84.7265V1.31644C67.0187 1.28919 67.0063 1.26679 66.9909 1.24996C66.9758 1.23355 66.956 1.22013 66.9345 1.20878C66.8914 1.18606 66.8314 1.16631 66.7594 1.14858C66.6145 1.11292 66.4085 1.08255 66.1609 1.05649C65.6649 1.00429 64.994 0.968601 64.2925 0.944175C62.8891 0.895311 61.3589 0.891406 60.851 0.891406C60.5289 0.891406 59.8436 0.920801 59.2387 0.978554C58.9364 1.00741 58.6524 1.04351 58.4434 1.08693C58.3393 1.10855 58.2511 1.1325 58.188 1.15935C58.1567 1.17268 58.1286 1.18794 58.1075 1.20605C58.0867 1.22386 58.0664 1.25021 58.0664 1.28518C58.0664 1.30863 58.0785 1.3258 58.0895 1.33625C58.1002 1.34646 58.1133 1.35383 58.1255 1.35939C58.1501 1.37063 58.1832 1.37976 58.2211 1.38763C58.2979 1.40354 58.4064 1.41658 58.5365 1.42743C58.7972 1.44917 59.1518 1.46262 59.5285 1.47093C60.1769 1.48522 60.8939 1.48433 61.3177 1.4838C61.3656 1.48374 61.4096 1.48368 61.4495 1.48365V84.7265H59.679C59.6149 84.7265 59.5053 84.722 59.3646 84.7162C59.2892 84.7131 59.205 84.7096 59.114 84.7063C58.8545 84.6967 58.5432 84.6884 58.2377 84.6933C57.9326 84.6982 57.6312 84.7163 57.3923 84.7603C57.273 84.7822 57.167 84.8111 57.0832 84.8491C57.0005 84.8867 56.9323 84.9365 56.8994 85.0048H56.8994L56.8991 85.0054C56.8935 85.0174 56.8919 85.0314 56.8956 85.0452C56.8991 85.0578 56.9061 85.0669 56.9117 85.0726C56.9223 85.0834 56.9358 85.0902 56.9461 85.0946C56.9682 85.104 56.9991 85.1123 57.0349 85.1198C57.1078 85.1352 57.2133 85.1502 57.3396 85.1647C57.5927 85.1938 57.935 85.2214 58.2789 85.2454C58.966 85.2932 59.6652 85.3265 59.679 85.3265H73.8599C74.8643 85.3265 75.8872 85.347 76.9199 85.3676C80.5799 85.4408 84.3609 85.5164 87.8647 84.6923L87.8532 84.6437L87.8647 84.6923C96.9338 82.5494 102.041 74.7949 102.902 66.4989C103.763 58.2035 100.38 49.3547 92.4557 45.0184L92.4541 45.0175L92.4401 45.0106C92.4398 45.0104 92.4395 45.0103 92.4393 45.0101C89.6179 43.4664 86.5279 42.8679 83.3718 42.6548C81.1841 42.507 78.9611 42.5444 76.7732 42.5812C75.8063 42.5975 74.8461 42.6136 73.8989 42.6136C73.8348 42.6136 73.7252 42.6091 73.5845 42.6033C73.5091 42.6002 73.4249 42.5967 73.3339 42.5934C73.0745 42.5839 72.7631 42.5755 72.4576 42.5804C72.1525 42.5853 71.8511 42.6034 71.6122 42.6474C71.4929 42.6694 71.3869 42.6982 71.3031 42.7362C71.2205 42.7738 71.1522 42.8236 71.1193 42.8919L71.119 42.8925C71.1134 42.9045 71.1118 42.9185 71.1156 42.9323C71.119 42.945 71.126 42.954 71.1317 42.9597C71.1422 42.9705 71.1557 42.9773 71.166 42.9817C71.1881 42.9912 71.219 42.9994 71.2549 43.007C71.3277 43.0223 71.4333 43.0373 71.5595 43.0518C71.8127 43.0809 72.1549 43.1085 72.4989 43.1325C73.1859 43.1803 73.8851 43.2137 73.8989 43.2137C74.6846 43.2137 75.4847 43.1861 76.2882 43.1585C76.696 43.1445 77.1047 43.1304 77.5128 43.1199C78.7262 43.0886 79.9366 43.0887 81.113 43.2134C85.7765 43.7117 90.1328 46.6402 92.9862 50.2577C99.043 57.9514 99.1522 69.443 93.2902 77.2772C90.4599 81.0587 85.9866 84.2285 81.1756 84.7268C79.8936 84.857 78.5585 84.8131 77.2358 84.7696C76.5787 84.748 75.9247 84.7265 75.2819 84.7265H67.0187Z" fill="#191919" stroke="#191919" stroke-width="0.1"/>
<path d="M120.913 111.727L123.14 106.395C123.46 105.614 123.62 105.18 123.62 105.094C123.62 104.704 123.186 104.5 122.319 104.485V103.946H125.694V104.485C125.171 104.508 124.788 104.649 124.546 104.907C124.304 105.157 124.003 105.715 123.643 106.583L119.366 116.907C118.96 117.891 118.6 118.559 118.288 118.911C117.975 119.27 117.632 119.45 117.257 119.45C116.749 119.45 116.495 119.219 116.495 118.758C116.495 118.227 116.901 117.778 117.714 117.411C118.19 117.2 118.507 117.02 118.663 116.872C118.827 116.723 118.987 116.454 119.143 116.063L120.057 113.778L116.448 106.043C116.128 105.364 115.862 104.934 115.651 104.754C115.44 104.575 115.081 104.485 114.573 104.485V103.946H118.979V104.485C118.206 104.508 117.819 104.668 117.819 104.965C117.819 105.083 117.972 105.465 118.276 106.114L120.913 111.727Z" fill="#191919"/>
<path d="M114.268 104.485H111.374V110.286C111.374 111.176 111.413 111.778 111.491 112.09C111.569 112.395 111.733 112.641 111.983 112.829C112.241 113.016 112.515 113.11 112.804 113.11C113.366 113.11 113.854 112.79 114.268 112.149L114.643 112.372C114.401 112.887 114.042 113.278 113.565 113.543C113.097 113.801 112.62 113.93 112.136 113.93C111.573 113.93 111.077 113.766 110.647 113.438C110.225 113.102 109.96 112.711 109.85 112.266C109.749 111.821 109.698 111.04 109.698 109.922V104.485H108.304V103.946C108.944 103.93 109.518 103.661 110.026 103.137C110.534 102.614 110.858 101.879 110.999 100.934H111.374V103.946H114.268V104.485Z" fill="#191919"/>
<path d="M105.597 103.946V110.239C105.597 111.286 105.612 111.942 105.643 112.208C105.675 112.473 105.788 112.672 105.983 112.805C106.186 112.938 106.546 113.004 107.061 113.004V113.543C105.874 113.559 105.007 113.684 104.46 113.918H104.319C104.069 113.489 103.936 112.747 103.921 111.692C103.444 112.434 102.897 112.993 102.28 113.368C101.671 113.743 100.995 113.93 100.253 113.93C99.6122 113.93 99.0458 113.786 98.5536 113.497C98.0614 113.2 97.7216 112.84 97.5341 112.418C97.3544 111.997 97.2645 111.36 97.2645 110.508V107.239C97.2645 106.129 97.245 105.454 97.2059 105.211C97.1669 104.961 97.0419 104.778 96.8309 104.661C96.6278 104.543 96.2489 104.485 95.6942 104.485V103.946H98.952V110.602C98.952 111.258 98.9911 111.735 99.0692 112.032C99.1473 112.329 99.3466 112.59 99.6669 112.817C99.9872 113.036 100.358 113.145 100.78 113.145C101.382 113.145 101.956 112.95 102.503 112.559C103.05 112.161 103.421 111.743 103.616 111.305C103.819 110.86 103.921 110.227 103.921 109.407V107.239C103.921 106.192 103.909 105.555 103.886 105.329C103.862 105.102 103.761 104.907 103.581 104.743C103.409 104.571 103.046 104.485 102.491 104.485H102.245V103.946H105.597Z" fill="#191919"/>
<path d="M94.4872 111.786H94.9208C94.8505 113.122 94.1942 113.79 92.952 113.79C92.4208 113.79 91.9989 113.649 91.6864 113.368C91.3817 113.086 91.1825 112.668 91.0887 112.114C90.3075 112.668 89.5927 113.086 88.9442 113.368C88.3036 113.649 87.7294 113.79 87.2216 113.79C86.5731 113.79 86.0145 113.602 85.5458 113.227C85.077 112.852 84.8427 112.356 84.8427 111.739C84.8427 110.934 85.2333 110.231 86.0145 109.629C86.8036 109.028 87.8895 108.442 89.2723 107.872L91.0887 107.133V106.665C91.0887 106 91.0458 105.52 90.9598 105.223C90.8739 104.926 90.6512 104.661 90.2919 104.426C89.9325 104.192 89.4598 104.075 88.8739 104.075C87.702 104.075 87.0497 104.465 86.9169 105.247C86.7919 106.043 86.4637 106.442 85.9325 106.442C85.4559 106.442 85.2177 106.215 85.2177 105.762C85.2177 105.317 85.5341 104.84 86.1669 104.333C86.7997 103.817 87.7841 103.559 89.12 103.559C90.1122 103.559 90.8817 103.715 91.4286 104.028C91.9755 104.34 92.3348 104.696 92.5067 105.094C92.6864 105.493 92.7762 106.102 92.7762 106.922V110.801C92.7762 111.708 92.8231 112.29 92.9169 112.547C93.0106 112.805 93.2137 112.934 93.5262 112.934C94.0419 112.934 94.3622 112.551 94.4872 111.786ZM91.0887 107.684L89.8114 108.2C87.7958 109.02 86.788 110.051 86.788 111.293C86.788 111.786 86.9169 112.184 87.1747 112.489C87.4325 112.786 87.7684 112.934 88.1825 112.934C88.5497 112.934 88.9755 112.813 89.4598 112.571C89.9442 112.329 90.4872 111.965 91.0887 111.481V107.684Z" fill="#191919"/>
<path d="M83.0028 107.192H76.3114C76.2802 107.653 76.2645 107.997 76.2645 108.223C76.2645 109.911 76.5262 111.18 77.0497 112.032C77.5809 112.875 78.37 113.297 79.4169 113.297C80.8387 113.297 81.8466 112.661 82.4403 111.387H83.0028C82.7528 112.184 82.2567 112.809 81.5145 113.262C80.7723 113.708 79.9637 113.93 79.0887 113.93C78.2762 113.93 77.5067 113.727 76.7802 113.321C76.0614 112.907 75.4716 112.325 75.0106 111.575C74.5497 110.825 74.3192 109.915 74.3192 108.844C74.3192 107.329 74.7645 106.071 75.6552 105.071C76.5458 104.063 77.6591 103.559 78.995 103.559C80.2528 103.559 81.2255 103.942 81.913 104.708C82.6005 105.473 82.9637 106.301 83.0028 107.192ZM80.952 106.723C80.9755 106.543 80.9872 106.383 80.9872 106.243C80.9872 105.555 80.7841 105.024 80.3778 104.649C79.9794 104.266 79.4872 104.075 78.9012 104.075C77.4794 104.075 76.6317 104.958 76.3583 106.723H80.952Z" fill="#191919"/>
<path d="M67.0067 104.989C68.8114 105.122 70.1512 105.571 71.0262 106.336C71.9012 107.102 72.3387 108.059 72.3387 109.208C72.3387 110.208 72.0419 111.071 71.4481 111.797C70.8544 112.516 70.0927 112.989 69.163 113.215C68.2411 113.434 67.0028 113.543 65.4481 113.543H59.2137V113.004H59.8231C60.5028 113.004 60.9716 112.918 61.2294 112.747C61.495 112.575 61.663 112.309 61.7333 111.95C61.8036 111.583 61.8387 110.735 61.8387 109.407V101.672C61.8387 100.383 61.7997 99.5513 61.7216 99.1763C61.6512 98.8013 61.495 98.5435 61.2528 98.4028C61.0184 98.2622 60.4989 98.1919 59.6942 98.1919H59.3895V97.6528L62.0028 97.5825L64.9794 97.4888C69.3231 97.4888 71.495 98.7388 71.495 101.239C71.495 102.27 71.12 103.098 70.37 103.723C69.6278 104.348 68.5067 104.77 67.0067 104.989ZM64.1356 104.766C64.3309 104.774 64.495 104.778 64.6278 104.778C66.3153 104.778 67.4677 104.512 68.0848 103.981C68.702 103.45 69.0106 102.59 69.0106 101.403C69.0106 100.575 68.8895 99.9341 68.6473 99.481C68.4052 99.0278 68.0419 98.6802 67.5575 98.438C67.0731 98.188 66.245 98.063 65.0731 98.063C64.7684 98.063 64.4559 98.0747 64.1356 98.0981V104.766ZM64.1356 105.34V108.879C64.1356 110.387 64.163 111.344 64.2177 111.75C64.2723 112.157 64.4169 112.465 64.6512 112.676C64.8934 112.887 65.3661 112.993 66.0692 112.993C67.3192 112.993 68.2567 112.672 68.8817 112.032C69.5067 111.391 69.8192 110.43 69.8192 109.149C69.8192 107.836 69.4637 106.872 68.7528 106.254C68.0497 105.629 66.8075 105.317 65.0262 105.317C64.745 105.317 64.4481 105.325 64.1356 105.34Z" fill="#191919"/>
<path d="M51.9716 111.786H52.4052C52.3348 113.122 51.6786 113.79 50.4364 113.79C49.9052 113.79 49.4833 113.649 49.1708 113.368C48.8661 113.086 48.6669 112.668 48.5731 112.114C47.7919 112.668 47.077 113.086 46.4286 113.368C45.788 113.649 45.2137 113.79 44.7059 113.79C44.0575 113.79 43.4989 113.602 43.0302 113.227C42.5614 112.852 42.327 112.356 42.327 111.739C42.327 110.934 42.7177 110.231 43.4989 109.629C44.288 109.028 45.3739 108.442 46.7567 107.872L48.5731 107.133V106.665C48.5731 106 48.5302 105.52 48.4442 105.223C48.3583 104.926 48.1356 104.661 47.7762 104.426C47.4169 104.192 46.9442 104.075 46.3583 104.075C45.1864 104.075 44.5341 104.465 44.4012 105.247C44.2762 106.043 43.9481 106.442 43.4169 106.442C42.9403 106.442 42.702 106.215 42.702 105.762C42.702 105.317 43.0184 104.84 43.6512 104.333C44.2841 103.817 45.2684 103.559 46.6044 103.559C47.5966 103.559 48.3661 103.715 48.913 104.028C49.4598 104.34 49.8192 104.696 49.9911 105.094C50.1708 105.493 50.2606 106.102 50.2606 106.922V110.801C50.2606 111.708 50.3075 112.29 50.4012 112.547C50.495 112.805 50.6981 112.934 51.0106 112.934C51.5262 112.934 51.8466 112.551 51.9716 111.786ZM48.5731 107.684L47.2958 108.2C45.2802 109.02 44.2723 110.051 44.2723 111.293C44.2723 111.786 44.4012 112.184 44.6591 112.489C44.9169 112.786 45.2528 112.934 45.6669 112.934C46.0341 112.934 46.4598 112.813 46.9442 112.571C47.4286 112.329 47.9716 111.965 48.5731 111.481V107.684Z" fill="#191919"/>
<path d="M39.3153 97.4302V110.25C39.3153 111.274 39.327 111.918 39.3505 112.184C39.3817 112.45 39.495 112.653 39.6903 112.793C39.8856 112.934 40.2333 113.004 40.7333 113.004H41.0145V113.543H35.8817V113.004H36.2098C36.6786 113.004 37.0106 112.942 37.2059 112.817C37.4091 112.684 37.5302 112.5 37.5692 112.266C37.6083 112.032 37.6278 111.36 37.6278 110.25V100.758C37.6278 99.7505 37.538 99.1177 37.3583 98.8599C37.1786 98.5942 36.7411 98.4614 36.0458 98.4614V97.9224C36.5223 97.9224 37.0809 97.8677 37.7216 97.7583C38.37 97.6489 38.8153 97.5396 39.0575 97.4302H39.3153Z" fill="#191919"/>
<path d="M31.3583 106.008C31.6239 105.313 32.0536 104.731 32.6473 104.262C33.2489 103.793 33.8348 103.559 34.4052 103.559C34.9208 103.559 35.327 103.719 35.6239 104.04C35.9208 104.36 36.0692 104.688 36.0692 105.024C36.0692 105.25 35.9911 105.446 35.8348 105.61C35.6864 105.774 35.5028 105.856 35.2841 105.856C34.8934 105.856 34.5966 105.567 34.3934 104.989C34.2528 104.598 34.0419 104.403 33.7606 104.403C33.4247 104.403 33.0223 104.633 32.5536 105.094C32.0848 105.547 31.7841 106.02 31.6512 106.512C31.5184 107.004 31.452 107.68 31.452 108.54V110.25C31.452 111.274 31.4637 111.918 31.4872 112.184C31.5184 112.45 31.6317 112.653 31.827 112.793C32.0223 112.934 32.37 113.004 32.87 113.004H33.1981V113.543H28.1005V113.004H28.3466C28.8153 113.004 29.1473 112.942 29.3427 112.817C29.5458 112.684 29.6669 112.5 29.7059 112.266C29.745 112.032 29.7645 111.36 29.7645 110.25V107.543C29.7645 106.512 29.7489 105.868 29.7177 105.61C29.6942 105.344 29.5848 105.141 29.3895 105C29.1942 104.852 28.8466 104.778 28.3466 104.778H28.1005V104.25C28.8348 104.165 29.7958 103.934 30.9833 103.559C31.2098 104.176 31.3348 104.993 31.3583 106.008Z" fill="#191919"/>
<path d="M26.6825 111.786H27.1161C27.0458 113.122 26.3895 113.79 25.1473 113.79C24.6161 113.79 24.1942 113.649 23.8817 113.368C23.577 113.086 23.3778 112.668 23.2841 112.114C22.5028 112.668 21.788 113.086 21.1395 113.368C20.4989 113.649 19.9247 113.79 19.4169 113.79C18.7684 113.79 18.2098 113.602 17.7411 113.227C17.2723 112.852 17.038 112.356 17.038 111.739C17.038 110.934 17.4286 110.231 18.2098 109.629C18.9989 109.028 20.0848 108.442 21.4677 107.872L23.2841 107.133V106.665C23.2841 106 23.2411 105.52 23.1552 105.223C23.0692 104.926 22.8466 104.661 22.4872 104.426C22.1278 104.192 21.6552 104.075 21.0692 104.075C19.8973 104.075 19.245 104.465 19.1122 105.247C18.9872 106.043 18.6591 106.442 18.1278 106.442C17.6512 106.442 17.413 106.215 17.413 105.762C17.413 105.317 17.7294 104.84 18.3622 104.333C18.995 103.817 19.9794 103.559 21.3153 103.559C22.3075 103.559 23.077 103.715 23.6239 104.028C24.1708 104.34 24.5302 104.696 24.702 105.094C24.8817 105.493 24.9716 106.102 24.9716 106.922V110.801C24.9716 111.708 25.0184 112.29 25.1122 112.547C25.2059 112.805 25.4091 112.934 25.7216 112.934C26.2372 112.934 26.5575 112.551 26.6825 111.786ZM23.2841 107.684L22.0067 108.2C19.9911 109.02 18.9833 110.051 18.9833 111.293C18.9833 111.786 19.1122 112.184 19.37 112.489C19.6278 112.786 19.9637 112.934 20.3778 112.934C20.745 112.934 21.1708 112.813 21.6552 112.571C22.1395 112.329 22.6825 111.965 23.2841 111.481V107.684Z" fill="#191919"/>
<path d="M14.0262 107.579H14.5302V113.145H14.0262C13.8856 112.512 13.6317 111.954 13.2645 111.469C11.8661 113.047 10.0809 113.836 7.90906 113.836C5.61218 113.836 3.73328 113.11 2.27234 111.657C0.819214 110.204 0.0926514 108.282 0.0926514 105.891C0.0926514 104.321 0.428589 102.844 1.10046 101.461C1.77234 100.071 2.70984 99.0396 3.91296 98.3677C5.11609 97.6958 6.4364 97.3599 7.8739 97.3599C9.0614 97.3599 10.1356 97.606 11.0966 98.0981C12.0653 98.5825 12.788 99.1216 13.2645 99.7153C13.6005 99.0513 13.8036 98.3638 13.8739 97.6528H14.3895L14.5302 103.676H14.0262C13.6747 101.536 12.9559 100.047 11.87 99.2114C10.7919 98.3755 9.57312 97.9575 8.21375 97.9575C6.54968 97.9575 5.22546 98.6333 4.24109 99.9849C3.26453 101.336 2.77625 103.27 2.77625 105.786C2.77625 108.168 3.3114 109.997 4.38171 111.27C5.45203 112.536 6.78406 113.168 8.37781 113.168C9.22937 113.168 10.1005 112.961 10.9911 112.547C11.8817 112.133 12.5848 111.434 13.1005 110.45C13.6239 109.458 13.9325 108.5 14.0262 107.579Z" fill="#191919"/>
</svg>
