<svg width="50" height="41" viewBox="0 0 50 41" fill="none" xmlns="http://www.w3.org/2000/svg">
<g clip-path="url(#clip0_4115_1396)">
<path d="M21.9439 20.2946L21.9473 20.2953C21.9572 20.274 21.9601 20.2489 21.9534 20.2241C21.9472 20.2016 21.935 20.1863 21.9265 20.1776C21.9108 20.1617 21.8933 20.1538 21.8858 20.1506C21.868 20.143 21.8471 20.1378 21.8291 20.134C21.7906 20.1259 21.7372 20.1184 21.6764 20.1114C21.5536 20.0973 21.3885 20.084 21.2239 20.0725C20.8962 20.0497 20.559 20.0335 20.5492 20.0335C20.0819 20.0335 19.6029 20.05 19.1209 20.0666L19.1043 20.0672C18.616 20.084 18.1245 20.1008 17.635 20.1008C16.6558 20.1008 15.691 20.0336 14.7912 19.7687C11.5437 18.8092 9.17934 15.9351 8.43528 12.6814C7.69127 9.41289 8.5434 5.83494 10.8318 3.36169C12.9445 1.07942 15.4467 0.603339 18.4088 0.603339C18.4378 0.603339 18.4875 0.605386 18.5531 0.608091C18.5894 0.60959 18.6307 0.611292 18.6761 0.61296C18.8006 0.617535 18.951 0.621579 19.0991 0.619202C19.2462 0.61684 19.3953 0.608106 19.5158 0.585927C19.5758 0.57488 19.6333 0.559711 19.6813 0.5379C19.7271 0.517092 19.7791 0.48358 19.8063 0.427187L19.8068 0.426091C19.8167 0.404789 19.8197 0.379644 19.8129 0.354854C19.8068 0.332352 19.7946 0.317058 19.786 0.308385C19.7704 0.29248 19.7528 0.284541 19.7454 0.281338C19.7276 0.273695 19.7066 0.268531 19.6886 0.264728C19.6501 0.25662 19.5967 0.249122 19.5359 0.242138C19.4131 0.228039 19.2481 0.214724 19.0834 0.203263C18.7558 0.180457 18.4186 0.164265 18.4088 0.164265C18.1629 0.164265 17.9164 0.163039 17.6697 0.161812C15.0298 0.148679 12.356 0.135378 9.99537 1.62155L9.99532 1.62158C6.31743 3.94009 4.67561 8.55348 5.62914 12.722C6.51154 16.5948 9.58219 19.7102 13.5563 20.3108L13.5712 20.212L13.5563 20.3108C15.2458 20.5661 17.0123 20.5282 18.741 20.4911C19.3501 20.4781 19.9545 20.4651 20.5492 20.4651C20.5783 20.4651 20.6279 20.4672 20.6935 20.4699C20.7298 20.4714 20.7711 20.4731 20.8165 20.4747C20.941 20.4793 21.0915 20.4834 21.2395 20.481C21.3867 20.4786 21.5358 20.4699 21.6563 20.4477C21.7163 20.4367 21.7737 20.4215 21.8217 20.3997C21.866 20.3796 21.9161 20.3476 21.9439 20.2946Z" fill="#E3B6B1" stroke="#E3B6B1" stroke-width="0.2"/>
<path d="M38.9576 23.8109C37.6027 22.0932 35.5371 20.7071 33.3326 20.4715C32.7752 20.4125 32.2005 20.4123 31.6213 20.4272C31.4276 20.4322 31.2329 20.4389 31.0383 20.4456C30.6533 20.4588 30.2684 20.4721 29.8915 20.4721C29.8817 20.4721 29.5445 20.4559 29.2168 20.4331C29.0522 20.4216 28.8871 20.4083 28.7643 20.3942C28.7035 20.3872 28.6501 20.3797 28.6117 20.3716C28.5936 20.3678 28.5727 20.3627 28.5549 20.355C28.5474 20.3518 28.5299 20.3439 28.5142 20.328C28.5057 20.3193 28.4935 20.304 28.4873 20.2815C28.4806 20.2567 28.4835 20.2316 28.4935 20.2103L28.494 20.2092C28.5211 20.1528 28.5732 20.1193 28.619 20.0984C28.667 20.0766 28.7244 20.0615 28.7844 20.0504C28.9049 20.0282 29.054 20.0195 29.2012 20.0171C29.3492 20.0148 29.4997 20.0188 29.6242 20.0234C29.6696 20.0251 29.7109 20.0268 29.7472 20.0283C29.8128 20.031 29.8624 20.033 29.8915 20.033C30.3416 20.033 30.7991 20.0253 31.2606 20.0176C32.3082 19.9999 33.3764 19.982 34.4257 20.0528C35.94 20.1551 37.4291 20.4426 38.7911 21.1875L38.7969 21.1904L38.8002 21.192L38.8002 21.1921C42.6215 23.2831 44.248 27.5471 43.8339 31.5367C43.4197 35.5274 40.9607 39.2677 36.5861 40.3013L36.586 40.3013C34.9006 40.6977 33.0797 40.6613 31.3284 40.6262C30.8362 40.6163 30.3495 40.6066 29.8728 40.6066H23.0929C23.083 40.6066 22.7458 40.5904 22.4182 40.5676C22.2535 40.5561 22.0885 40.5428 21.9657 40.5287C21.9049 40.5217 21.8515 40.5142 21.813 40.5061C21.795 40.5023 21.774 40.4971 21.7562 40.4895C21.7488 40.4863 21.7312 40.4783 21.7156 40.4624C21.707 40.4538 21.6948 40.4385 21.6887 40.416C21.6819 40.3912 21.6849 40.366 21.6948 40.3447L21.6953 40.3436L21.6953 40.3436C21.7225 40.2873 21.7745 40.2537 21.8203 40.2329C21.8683 40.2111 21.9258 40.1959 21.9858 40.1849C22.1063 40.1627 22.2554 40.154 22.4025 40.1516C22.5506 40.1493 22.701 40.1533 22.8255 40.1579C22.8709 40.1595 22.9122 40.1612 22.9486 40.1627C23.0142 40.1654 23.0638 40.1675 23.0929 40.1675H23.8632V0.520735C23.6592 0.520988 23.3235 0.521255 23.0192 0.514546C22.8388 0.510568 22.6674 0.5041 22.5403 0.493504C22.4773 0.488259 22.4217 0.481729 22.3804 0.473155C22.3606 0.469046 22.3381 0.463319 22.3185 0.454384C22.309 0.450034 22.2942 0.442317 22.2804 0.429171C22.2661 0.415549 22.2457 0.388761 22.2457 0.349666C22.2457 0.301277 22.274 0.269476 22.2919 0.254103C22.3105 0.238134 22.3321 0.227206 22.3502 0.219481C22.3874 0.203668 22.4354 0.191013 22.4866 0.180372C22.5907 0.158753 22.7298 0.141187 22.8751 0.127313C23.1664 0.0995025 23.4965 0.0853027 23.6532 0.0853027C23.8962 0.0853027 24.6289 0.0871676 25.3012 0.110578C25.637 0.12227 25.96 0.139404 26.1998 0.164648C26.3191 0.177199 26.4218 0.192138 26.4962 0.210466C26.5326 0.219426 26.5684 0.230626 26.5973 0.245843C26.6116 0.253422 26.6295 0.264674 26.6448 0.281421C26.6609 0.298992 26.6781 0.327212 26.6781 0.364608V40.1675H30.5527C30.8655 40.1675 31.181 40.1779 31.4965 40.1883C32.1256 40.209 32.7547 40.2298 33.3627 40.168L38.9576 23.8109ZM38.9576 23.8109C41.8318 27.4621 41.8838 32.9183 39.1017 36.6364C37.7575 38.4324 35.6363 39.9325 33.3629 40.168L38.9576 23.8109Z" fill="#E3B6B1" stroke="#E3B6B1" stroke-width="0.2"/>
</g>
<defs>
<clipPath id="clip0_4115_1396">
<rect width="50" height="40.6294" fill="white" transform="translate(0 0.185303)"/>
</clipPath>
</defs>
</svg>
